<?xml version="1.0" encoding="UTF-8" standalone="no"?>
<svg
   version="1.0"
   width="3000pt"
   height="3000pt"
   viewBox="0 0 3000 3000"
   preserveAspectRatio="xMidYMid"
   id="svg3"
   xmlns:xlink="http://www.w3.org/1999/xlink"
   xmlns="http://www.w3.org/2000/svg"
   xmlns:svg="http://www.w3.org/2000/svg">
  <defs
     id="defs3">
    <linearGradient
       id="linearGradient7">
      <stop
         style="stop-color:#9554e8;stop-opacity:1;"
         offset="0"
         id="stop7" />
      <stop
         style="stop-color:#ff6448;stop-opacity:1;"
         offset="1"
         id="stop8" />
    </linearGradient>
    <linearGradient
       id="linearGradient5">
      <stop
         style="stop-color:#9554e8;stop-opacity:1;"
         offset="0"
         id="stop5" />
      <stop
         style="stop-color:#ff6448;stop-opacity:1;"
         offset="1"
         id="stop6" />
    </linearGradient>
    <linearGradient
       id="linearGradient3">
      <stop
         style="stop-color:#9554e8;stop-opacity:1;"
         offset="0"
         id="stop3" />
      <stop
         style="stop-color:#ff6448;stop-opacity:1;"
         offset="1"
         id="stop4" />
    </linearGradient>
    <linearGradient
       xlink:href="#linearGradient3"
       id="linearGradient4"
       x1="14999.505"
       y1="27002.238"
       x2="15000.17"
       y2="3005.938"
       gradientUnits="userSpaceOnUse" />
    <linearGradient
       xlink:href="#linearGradient5"
       id="linearGradient6"
       x1="7471.8154"
       y1="22474.041"
       x2="22361.303"
       y2="7692.8403"
       gradientUnits="userSpaceOnUse" />
    <linearGradient
       xlink:href="#linearGradient7"
       id="linearGradient8"
       x1="12993.758"
       y1="17038.484"
       x2="16959.594"
       y2="13008.163"
       gradientUnits="userSpaceOnUse" />
  </defs>
  <metadata
     id="metadata1">
Created by potrace 1.16, written by Peter Selinger 2001-2019
</metadata>
  <path
     style="fill:#000000;fill-opacity:1;stroke-width:3.41989;stroke-linecap:round;stroke-linejoin:round"
     id="path8"
     d="M 2428.7387,520.23243 A 1350,1350 0 0 1 2497.291,2409.8959 1350,1350 0 0 1 609.27736,2514.4522 1350,1350 0 0 1 468.75526,628.77426 1350,1350 0 0 1 2351.4123,452.33734" />
  <g
     transform="matrix(0.1,0,0,-0.1,0,3000)"
     fill="#000000"
     stroke="none"
     id="g3">
    <path
       d="M 14590,26989 C 11140,26871 7904,25269 5714,22593 4675,21323 3900,19836 3456,18260 c -609,-2159 -602,-4431 19,-6585 206,-717 455,-1351 802,-2045 579,-1160 1321,-2189 2243,-3110 2739,-2739 6616,-3985 10439,-3354 3783,624 7051,3034 8764,6464 280,560 468,1012 658,1580 623,1868 776,3869 444,5806 -254,1480 -771,2874 -1548,4169 -913,1524 -2182,2845 -3677,3831 -2076,1368 -4527,2058 -7010,1973 z m 1125,-3013 c 1217,-110 2257,-400 3305,-922 726,-362 1364,-794 1981,-1340 185,-164 548,-528 713,-714 1367,-1541 2158,-3454 2276,-5504 13,-229 13,-763 0,-992 -146,-2539 -1330,-4866 -3295,-6479 -291,-239 -711,-535 -1040,-733 -1208,-725 -2507,-1143 -3945,-1269 -294,-26 -1126,-26 -1420,0 -1410,123 -2682,526 -3870,1225 -898,528 -1726,1239 -2391,2052 -1203,1470 -1909,3289 -2019,5204 -13,229 -13,763 0,992 146,2525 1325,4855 3267,6456 891,734 1951,1304 3063,1649 639,198 1354,332 2020,379 85,6 178,12 205,14 143,10 982,-3 1150,-18 z"
       id="path1"
       style="fill:url(#linearGradient4);fill-opacity:1" />
    <path
       d="m 14625,22489 c -2226,-114 -4283,-1208 -5622,-2990 -518,-690 -919,-1479 -1172,-2307 -494,-1613 -429,-3337 184,-4917 551,-1419 1548,-2660 2825,-3512 1394,-930 3075,-1369 4740,-1238 2068,164 3963,1164 5265,2780 618,768 1093,1684 1364,2635 567,1986 289,4122 -766,5892 -51,86 -93,163 -93,171 0,8 7,20 15,27 8,7 35,45 60,85 249,400 184,913 -157,1241 -167,160 -354,247 -589,275 -166,19 -327,-7 -503,-82 l -89,-38 -37,32 c -462,405 -762,626 -1201,890 -1266,760 -2752,1131 -4224,1056 z m 990,-513 c 690,-68 1318,-215 1921,-449 791,-309 1478,-731 2153,-1325 l 44,-39 -26,-44 c -92,-158 -138,-386 -117,-578 27,-242 116,-428 289,-602 174,-173 360,-262 602,-289 140,-16 325,7 441,55 13,5 33,-21 97,-128 494,-830 817,-1776 930,-2727 40,-334 46,-440 46,-850 0,-498 -23,-781 -100,-1215 -437,-2467 -2145,-4504 -4495,-5363 -1007,-368 -2092,-498 -3165,-381 -2952,322 -5384,2481 -6055,5375 -75,325 -126,654 -162,1039 -17,188 -17,902 0,1090 42,455 107,840 207,1220 402,1538 1307,2887 2575,3837 1094,819 2376,1292 3766,1388 194,13 859,4 1049,-14 z"
       id="path2"
       style="fill:url(#linearGradient6);fill-opacity:1" />
    <path
       d="m 14807,16989 c -780,-75 -1457,-617 -1702,-1362 -194,-589 -109,-1217 234,-1733 446,-671 1252,-1007 2046,-854 514,100 984,414 1276,854 448,674 448,1538 0,2212 -406,612 -1123,953 -1854,883 z"
       id="path3"
       style="fill:url(#linearGradient8);fill-opacity:1" />
  </g>
</svg>
