<?xml version="1.0" encoding="UTF-8" standalone="no"?>
<svg
   width="16"
   height="16"
   fill="currentColor"
   class="bi bi-person-circle"
   viewBox="0 0 16 16"
   version="1.1"
   id="svg2"
   xmlns="http://www.w3.org/2000/svg"
   xmlns:svg="http://www.w3.org/2000/svg">
  <defs
     id="defs2" />
  <path
     d="M 11,6 A 3,3 0 1 1 5,6 3,3 0 0 1 11,6"
     id="path1"
     style="fill:#ffffff;fill-opacity:1" />
  <path
     fill-rule="evenodd"
     d="M 0,8 A 8,8 0 1 1 16,8 8,8 0 0 1 0,8 M 8,1 A 7,7 0 0 0 2.532,12.37 C 3.242,11.226 4.805,10 8,10 c 3.195,0 4.757,1.225 5.468,2.37 A 7,7 0 0 0 8,1"
     id="path2"
     style="fill:#ffffff;fill-opacity:1" />
</svg>
